<?xml version="1.0" encoding="utf-8"?>
<!-- Generator: Adobe Illustrator 22.0.1, SVG Export Plug-In . SVG Version: 6.00 Build 0)  -->
<svg version="1.1" id="Layer_1" xmlns="http://www.w3.org/2000/svg" xmlns:xlink="http://www.w3.org/1999/xlink" x="0px" y="0px"
	 viewBox="0 0 645.3 341.8" style="enable-background:new 0 0 645.3 341.8;" xml:space="preserve">
<style type="text/css">
	.st0{fill:#8DD5E8;}
	.st1{fill:#00AEEF;}
	.st2{fill:#ED9E8E;}
	.st3{fill:#F15A29;}
</style>
<g>
	<path class="st0" d="M523.2,0h107.8l-23.4,40.5h-67.4l-8.5,14.7h56l-23.4,40.5h-56l-10.9,18.9H565L541.6,155H433.8L523.2,0z"/>
	<path class="st1" d="M537.4,10.1h107.8l-23.4,40.5h-67.4l-8.5,14.7h56l-23.4,40.5h-56l-10.9,18.9h67.4l-23.4,40.5H447.9L537.4,10.1
		z"/>
</g>
<g>
	<path class="st0" d="M89.5,0h107.8L174,40.5h-67.4l-8.5,14.7h56l-23.4,40.5h-56l-10.9,18.9h67.4L107.8,155H0L89.5,0z"/>
	<path class="st1" d="M103.7,10.1h107.8l-23.4,40.5h-67.4l-8.5,14.7h56L145,105.7h-56L78,124.6h67.4L122,165.1H14.2L103.7,10.1z"/>
</g>
<g>
	<path class="st0" d="M229.8,0h98.3l-0.1,0.2l8.2,12.7l-73.4,127.2L239,155h-98.7L229.8,0z M204.1,114.5h32.9l42.6-73.8h-32.9
		L204.1,114.5z"/>
	<path class="st1" d="M244,10.1h98.3l-0.1,0.2l8.2,12.7l-73.4,127.2l-23.7,14.9h-98.7L244,10.1z M218.3,124.6h32.9l42.6-73.8H261
		L218.3,124.6z"/>
</g>
<g>
	<path class="st0" d="M364.2,106.8l23.6-40.9l66.2-0.2L402.4,155H285.8l89.5-155h116.5l-23.4,40.5h-76l-42.7,74h35.6l4.5-7.8H364.2z
		"/>
	<path class="st1" d="M378.4,116.9L402,76l66.2-0.2l-51.6,89.4H300l89.5-155H506l-23.4,40.5h-76l-42.7,74h35.6l4.5-7.8H378.4z"/>
</g>
<g>
	<path class="st2" d="M0,186.8h107.4l23.4,40.5H63.8l42.7,74h66.9l23.4,40.5H89.5L0,186.8z"/>
	<path class="st3" d="M10,176.8h107.4l23.4,40.5H73.8l42.7,74h66.9l23.4,40.5H99.5L10,176.8z"/>
</g>
<g>
	<path class="st2" d="M234.3,186.8l68.9,79.4l43.6,75.6h-40.5l-11.8-20.5h-35.4l11.8,20.5h-40.5l-43.6-75.6l-22.8-79.4H234.3z
		 M219,227.7l14.4,48.9l2.2,3.8h35.4l-2.2-3.8l-42.1-48.9H219z"/>
	<path class="st3" d="M244.3,176.8l68.9,79.4l43.6,75.6h-40.5l-11.8-20.5h-35.4l11.8,20.5h-40.5l-43.6-75.6l-22.8-79.4H244.3z
		 M229,217.7l14.4,48.9l2.2,3.8h35.4l-2.2-3.8l-42.1-48.9H229z"/>
</g>
<g>
	<path class="st2" d="M295.4,186.8h106.7l23.4,40.5h-66.3l8.5,14.7H434l57.6,99.8H384.9l-23.4-40.5h66.3l-10.9-18.9h-66.3
		L295.4,186.8z"/>
	<path class="st3" d="M305.4,176.8h106.7l23.4,40.5h-66.3l8.5,14.7H444l57.6,99.8H394.9l-23.4-40.5h66.3l-10.9-18.9h-66.3
		L305.4,176.8z"/>
</g>
<g>
	<g>
		<path class="st2" d="M437.9,186.8h107.8l23.4,40.5h-67.4l8.5,14.7h56l23.4,40.5h-56l10.9,18.9h67.4l23.4,40.5H527.4L437.9,186.8z"
			/>
	</g>
	<path class="st3" d="M447.9,176.8h107.8l23.4,40.5h-67.4l8.5,14.7h56l23.4,40.5h-56l10.9,18.9h67.4l23.4,40.5H537.4L447.9,176.8z"
		/>
</g>
</svg>
